<svg xmlns="http://www.w3.org/2000/svg" viewBox="0 0 655.86 273.07"><title>UDX</title><g style="fill: #19234c;" id="Layer_2" data-name="Layer 2"><g id="Layer_1-2" data-name="Layer 1"><path d="M539.92,156.61l-.37.62h0A212.86,212.86,0,0,1,507.62,213a212.41,212.41,0,0,0,148.24,60V210.89A150.65,150.65,0,0,1,539.92,156.61Z"/><path d="M504.93,62.64c-4.76,4.79-9.31,9.8-13.59,15-4.29-5.21-8.84-10.22-13.6-15A212.53,212.53,0,0,0,326.81,0H264.24V273h62.57V62.18a150.91,150.91,0,0,1,130.11,74.34h0A151,151,0,0,1,350.8,209v62.72c198.85-22.28,134-209.53,305.05-209.53V0A212.5,212.5,0,0,0,504.93,62.64Z"/><path d="M238.52,0H180.33V211.33H127a67.08,67.08,0,0,1-46.62-18.45c-12.07-11.54-18.71-26.67-18.71-42.61V0H0V150.27C0,217.94,57,273,127,273H238.52Z"/></g></g></svg>